HIERARCHY
ROOT Hips
{
	OFFSET 0.000000 0.000000 0.000000
	CHANNELS 6 Xposition Yposition Zposition Yrotation Xrotation Zrotation
	JOINT Spine
	{
		OFFSET 0.000000 1.813613 0.000001
		CHANNELS 6 Xposition Yposition Zposition Yrotation Xrotation Zrotation
		JOINT Spine1
		{
			OFFSET 0.000000 4.103837 0.000003
			CHANNELS 6 Xposition Yposition Zposition Yrotation Xrotation Zrotation
			JOINT Neck
			{
				OFFSET 0.000000 4.546181 0.000003
				CHANNELS 6 Xposition Yposition Zposition Yrotation Xrotation Zrotation
				JOINT Head
				{
					OFFSET 0.000000 3.428171 0.442347
					CHANNELS 6 Xposition Yposition Zposition Yrotation Xrotation Zrotation
					End Site
					{
						OFFSET 0.000000 4.423446 0.000003
					}
				}
			}
			JOINT LeftShoulder
			{
				OFFSET 0.882844 3.709369 -0.096478
				CHANNELS 6 Xposition Yposition Zposition Yrotation Xrotation Zrotation
				JOINT LeftArm
				{
					OFFSET 2.558750 0.000000 0.000000
					CHANNELS 6 Xposition Yposition Zposition Yrotation Xrotation Zrotation
					JOINT LeftForeArm
					{
						OFFSET 6.635536 0.000000 0.000000
						CHANNELS 6 Xposition Yposition Zposition Yrotation Xrotation Zrotation
						JOINT LeftHand
						{
							OFFSET 5.934642 0.000000 0.000000
							CHANNELS 6 Xposition Yposition Zposition Yrotation Xrotation Zrotation
							End Site
							{
								OFFSET 3.317585 0.000000 0.000000
							}
						}
					}
				}
			}
			JOINT RightShoulder
			{
				OFFSET -0.884649 3.709369 -0.096478
				CHANNELS 6 Xposition Yposition Zposition Yrotation Xrotation Zrotation
				JOINT RightArm
				{
					OFFSET -2.558751 0.000000 0.000000
					CHANNELS 6 Xposition Yposition Zposition Yrotation Xrotation Zrotation
					JOINT RightForeArm
					{
						OFFSET -6.635536 0.000000 0.000000
						CHANNELS 6 Xposition Yposition Zposition Yrotation Xrotation Zrotation
						JOINT RightHand
						{
							OFFSET -5.934641 0.000000 0.000000
							CHANNELS 6 Xposition Yposition Zposition Yrotation Xrotation Zrotation
							End Site
							{
								OFFSET -3.317585 0.000000 0.000000
							}
						}
					}
				}
			}
		}
	}
	JOINT LeftUpLeg
	{
		OFFSET 2.211723 0.000000 0.000000
		CHANNELS 6 Xposition Yposition Zposition Yrotation Xrotation Zrotation
		JOINT LeftLeg
		{
			OFFSET 0.000000 -11.511356 -0.000007
			CHANNELS 6 Xposition Yposition Zposition Yrotation Xrotation Zrotation
			JOINT LeftFoot
			{
				OFFSET 0.000000 -9.247384 -0.000006
				CHANNELS 6 Xposition Yposition Zposition Yrotation Xrotation Zrotation
				JOINT LeftToeBase
				{
					OFFSET 0.000000 -1.437620 3.317584
					CHANNELS 6 Xposition Yposition Zposition Yrotation Xrotation Zrotation
					End Site
					{
						OFFSET 0.000000 0.000000 0.884689
					}
				}
			}
		}
	}
	JOINT RightUpLeg
	{
		OFFSET -2.211723 0.000000 0.000000
		CHANNELS 6 Xposition Yposition Zposition Yrotation Xrotation Zrotation
		JOINT RightLeg
		{
			OFFSET 0.000000 -11.511356 -0.000007
			CHANNELS 6 Xposition Yposition Zposition Yrotation Xrotation Zrotation
			JOINT RightFoot
			{
				OFFSET 0.000000 -9.247384 -0.000006
				CHANNELS 6 Xposition Yposition Zposition Yrotation Xrotation Zrotation
				JOINT RightToeBase
				{
					OFFSET 0.000000 -1.437620 3.317584
					CHANNELS 6 Xposition Yposition Zposition Yrotation Xrotation Zrotation
					End Site
					{
						OFFSET 0.000000 0.000000 0.884689
					}
				}
			}
		}
	}
}
MOTION
Frames: 5
Frame Time: 0.041667
-0.755541 18.980745 -2.968142 -0.656174 9.003614 2.752364 -0.000000 1.813613 -0.000000 2.326506 7.636759 -4.107575 -0.000000 4.103839 0.000003 0.856178 4.005367 0.316733 -0.000000 4.546177 0.000003 20.866595 11.997261 22.764544 -0.000001 3.428184 0.442342 21.754453 13.804194 -22.456415 0.882844 3.709366 -0.096478 -10.579524 -2.056144 2.811872 2.558753 0.000006 0.000003 -12.806371 23.457479 -23.655237 6.635535 0.000000 -0.000001 -6.859250 -12.593691 17.383323 5.934647 -0.000000 -0.000003 0.494272 -13.785910 38.874541 -0.884648 3.709365 -0.096479 6.360645 -0.146139 -9.125198 -2.558748 -0.000003 0.000005 82.254336 54.587650 52.407557 -6.635540 0.000003 -0.000001 -117.565587 -215.763217 136.502328 -5.934642 0.000001 -0.000001 179.953532 -190.006082 -231.644964 2.211723 0.000005 -0.000002 -12.610203 -11.430859 30.812978 -0.000002 -11.511353 -0.000007 32.646644 24.070017 -13.036783 -0.000003 -9.247377 -0.000006 19.369158 -3.689725 -9.244500 -0.000001 -1.437619 3.317585 -0.000000 -0.000004 -0.000000 -2.211723 -0.000001 -0.000002 1.852549 -21.558150 -34.379313 0.000003 -11.511356 -0.000008 -3.832124 34.506823 30.736367 0.000005 -9.247386 -0.000006 -32.263952 -21.279485 5.590937 -0.000001 -1.437622 3.317584 0.000002 -0.000000 0.000003 
-0.779967 18.960114 -2.978349 -0.623082 9.060859 2.865234 0.000000 1.813614 0.000001 2.262514 7.565391 -4.114700 -0.000000 4.103840 0.000003 0.831051 3.942421 0.225808 -0.000001 4.546183 0.000004 21.026186 12.007514 22.842753 -0.000001 3.428177 0.442351 21.896089 13.877516 -22.581970 0.882844 3.709373 -0.096479 -10.778295 -2.208152 2.907031 2.558753 0.000004 0.000001 -11.321736 21.592026 -22.258280 6.635535 -0.000002 -0.000000 -5.541627 -9.682568 13.127285 5.934645 0.000003 -0.000005 1.141722 -10.698622 38.083748 -0.884649 3.709368 -0.096478 6.422700 -0.120938 -9.135982 -2.558748 -0.000005 0.000003 81.649236 54.875714 51.954032 -6.635532 -0.000000 0.000001 -117.030633 -215.730555 137.097989 -5.934636 -0.000004 0.000001 180.368111 -190.298141 -231.395608 2.211724 0.000002 0.000001 -12.749074 -11.483602 30.895189 -0.000004 -11.511350 -0.000007 32.720001 24.194487 -13.138885 -0.000000 -9.247380 -0.000006 19.373183 -3.688502 -9.261916 -0.000001 -1.437620 3.317584 0.000007 0.000000 -0.000004 -2.211724 -0.000001 0.000001 1.994926 -21.819149 -34.649249 0.000001 -11.511353 -0.000008 -3.398971 34.913243 31.223923 0.000002 -9.247388 -0.000007 -32.430093 -21.440117 5.653745 -0.000000 -1.437620 3.317586 0.000009 0.000001 -0.000003 
-0.811158 18.937702 -2.982008 -0.510364 9.028063 2.934102 -0.000000 1.813613 0.000003 2.110874 7.469625 -4.111637 -0.000000 4.103832 0.000004 0.778618 3.943717 0.195266 -0.000001 4.546181 0.000003 21.204169 12.032040 22.943469 -0.000000 3.428175 0.442349 22.060135 13.898118 -22.743444 0.882845 3.709368 -0.096477 -10.968363 -2.314494 3.054484 2.558752 0.000004 0.000002 -9.485687 18.858359 -20.724780 6.635538 -0.000005 0.000000 -4.698961 -6.184188 8.768396 5.934645 0.000012 -0.000003 2.051148 -7.226994 37.155136 -0.884648 3.709371 -0.096478 6.539034 -0.137660 -9.137537 -2.558748 -0.000004 -0.000001 81.012122 55.023775 51.485153 -6.635540 0.000002 0.000001 -116.834457 -215.826027 137.563630 -5.934641 0.000002 0.000000 179.895749 -190.423516 -231.682803 2.211724 0.000002 0.000003 -12.946045 -11.438445 31.041345 -0.000005 -11.511353 -0.000006 32.746792 24.327536 -13.283995 -0.000002 -9.247382 -0.000006 19.393825 -3.698748 -9.295716 0.000001 -1.437620 3.317586 0.000003 0.000000 -0.000003 -2.211723 -0.000003 0.000003 2.005707 -21.955155 -34.836922 0.000000 -11.511353 -0.000008 -2.739071 35.231386 31.785662 0.000003 -9.247390 -0.000006 -32.572209 -21.650409 5.783431 -0.000000 -1.437620 3.317583 -0.000003 -0.000002 0.000002 
-0.841395 18.915112 -2.987463 -0.414890 9.035167 2.995654 -0.000000 1.813615 0.000001 1.953172 7.367880 -4.096349 0.000000 4.103835 0.000005 0.724624 3.890769 0.197216 -0.000000 4.546180 0.000002 21.389902 12.048700 23.061377 0.000002 3.428174 0.442344 22.229144 13.945455 -22.923337 0.882844 3.709365 -0.096481 -11.143201 -2.329757 3.217459 2.558752 -0.000002 -0.000000 -8.655680 17.404980 -19.871134 6.635536 0.000003 -0.000001 -3.499359 -3.746527 5.294283 5.934643 0.000007 -0.000006 2.510273 -4.718420 35.873168 -0.884648 3.709363 -0.096480 6.590145 -0.114217 -9.169476 -2.558751 -0.000004 0.000001 80.489702 55.162544 51.029870 -6.635537 -0.000001 -0.000010 -116.528642 -215.774897 138.018042 -5.934639 -0.000000 0.000001 179.820371 -190.491408 -231.706408 2.211723 0.000001 -0.000000 -12.905739 -11.595319 31.150338 -0.000003 -11.511357 -0.000007 32.539113 24.506522 -13.373080 -0.000003 -9.247390 -0.000006 19.372052 -3.711725 -9.337514 -0.000001 -1.437620 3.317585 0.000004 -0.000002 -0.000006 -2.211723 0.000002 -0.000000 1.973293 -22.157991 -34.994440 0.000002 -11.511349 -0.000006 -2.064589 35.435534 32.483919 0.000001 -9.247390 -0.000007 -33.095255 -21.905588 5.671037 -0.000000 -1.437620 3.317584 0.000007 -0.000001 0.000003 
-0.870414 18.891966 -2.991704 -0.321081 9.017346 3.088658 0.000000 1.813624 0.000001 1.759931 7.270729 -4.023640 -0.000000 4.103843 0.000001 0.659510 3.881034 0.242487 -0.000001 4.546190 0.000002 21.572036 12.085342 23.130977 0.000005 3.428177 0.442346 22.396885 13.943017 -23.077338 0.882844 3.709364 -0.096476 -11.258275 -2.459331 3.388140 2.558753 0.000010 0.000001 -8.921686 17.795197 -19.727249 6.635537 0.000003 0.000000 -1.863519 -2.272707 2.726102 5.934643 -0.000002 -0.000004 2.668173 -3.143421 34.448428 -0.884648 3.709368 -0.096477 6.731804 -0.126237 -9.209354 -2.558749 0.000004 0.000003 79.908705 55.330481 50.607313 -6.635538 -0.000002 -0.000001 -115.895838 -215.573474 138.623853 -5.934636 0.000004 -0.000001 180.439200 -190.641672 -231.222285 2.211723 0.000007 -0.000000 -13.078958 -11.568930 31.262554 -0.000001 -11.511351 -0.000007 32.553221 24.631776 -13.515898 -0.000002 -9.247389 -0.000005 19.397333 -3.734885 -9.351133 -0.000003 -1.437620 3.317581 -0.000009 0.000002 0.000001 -2.211723 0.000009 -0.000000 2.030547 -22.316255 -35.241724 -0.000000 -11.511358 -0.000008 -1.218703 35.641071 33.271446 0.000005 -9.247382 -0.000007 -33.579136 -22.088895 5.733934 0.000001 -1.437620 3.317585 -0.000001 0.000004 0.000001 
